<?xml version="1.0" encoding="UTF-8"?>
<!DOCTYPE svg PUBLIC "-//W3C//DTD SVG 1.1//EN" "http://www.w3.org/Graphics/SVG/1.1/DTD/svg11.dtd">
<svg xmlns="http://www.w3.org/2000/svg" xmlns:xlink="http://www.w3.org/1999/xlink" version="1.1" width="521px" height="251px" viewBox="-0.5 -0.5 521 251" animation="{&quot;meta&quot;:{&quot;version&quot;:20230504,&quot;patch&quot;:1},&quot;page&quot;:{&quot;animationInfo&quot;:{}},&quot;infos&quot;:[{&quot;cell&quot;:{&quot;id&quot;:&quot;0&quot;,&quot;parentId&quot;:null,&quot;childrenIds&quot;:[&quot;1&quot;],&quot;groupParentId&quot;:null,&quot;groupChildrenIds&quot;:null,&quot;shapeType&quot;:null,&quot;origin&quot;:null,&quot;fromLibraryId&quot;:null,&quot;vertex&quot;:false,&quot;maskedCell&quot;:false,&quot;textCell&quot;:false,&quot;imageShape&quot;:false,&quot;webComponentType&quot;:null},&quot;animationInfo&quot;:null},{&quot;cell&quot;:{&quot;id&quot;:&quot;1&quot;,&quot;parentId&quot;:&quot;0&quot;,&quot;childrenIds&quot;:[&quot;IKJQZZmq2oIj-uxnA4Oj-73&quot;,&quot;IKJQZZmq2oIj-uxnA4Oj-74&quot;,&quot;IKJQZZmq2oIj-uxnA4Oj-75&quot;,&quot;IKJQZZmq2oIj-uxnA4Oj-76&quot;,&quot;IKJQZZmq2oIj-uxnA4Oj-77&quot;,&quot;IKJQZZmq2oIj-uxnA4Oj-78&quot;,&quot;IKJQZZmq2oIj-uxnA4Oj-79&quot;,&quot;IKJQZZmq2oIj-uxnA4Oj-80&quot;,&quot;IKJQZZmq2oIj-uxnA4Oj-81&quot;,&quot;IKJQZZmq2oIj-uxnA4Oj-82&quot;,&quot;IKJQZZmq2oIj-uxnA4Oj-83&quot;,&quot;IKJQZZmq2oIj-uxnA4Oj-84&quot;],&quot;groupParentId&quot;:null,&quot;groupChildrenIds&quot;:null,&quot;shapeType&quot;:null,&quot;origin&quot;:null,&quot;fromLibraryId&quot;:null,&quot;vertex&quot;:false,&quot;maskedCell&quot;:false,&quot;textCell&quot;:false,&quot;imageShape&quot;:false,&quot;webComponentType&quot;:null},&quot;animationInfo&quot;:null},{&quot;cell&quot;:{&quot;id&quot;:&quot;IKJQZZmq2oIj-uxnA4Oj-73&quot;,&quot;parentId&quot;:&quot;1&quot;,&quot;childrenIds&quot;:null,&quot;groupParentId&quot;:null,&quot;groupChildrenIds&quot;:null,&quot;shapeType&quot;:&quot;mxgraph.floorplan.room&quot;,&quot;origin&quot;:null,&quot;fromLibraryId&quot;:null,&quot;vertex&quot;:true,&quot;maskedCell&quot;:false,&quot;textCell&quot;:false,&quot;imageShape&quot;:false,&quot;webComponentType&quot;:null},&quot;animationInfo&quot;:{&quot;name&quot;:&quot;Element&quot;,&quot;startTime&quot;:1,&quot;duration&quot;:1,&quot;loopForever&quot;:false,&quot;animations&quot;:[{&quot;id&quot;:&quot;Aj7TnAmDe7xMGQLG&quot;,&quot;startTime&quot;:0,&quot;duration&quot;:1,&quot;type&quot;:&quot;Always Show&quot;,&quot;animationId&quot;:null,&quot;animationOptions&quot;:null,&quot;animationJsonData&quot;:null},{&quot;id&quot;:&quot;Aj7TnAmDe7xMGQLH&quot;,&quot;startTime&quot;:1.5,&quot;duration&quot;:1,&quot;type&quot;:&quot;Always Show&quot;,&quot;animationId&quot;:null,&quot;animationOptions&quot;:null,&quot;animationJsonData&quot;:null}]}},{&quot;cell&quot;:{&quot;id&quot;:&quot;IKJQZZmq2oIj-uxnA4Oj-74&quot;,&quot;parentId&quot;:&quot;1&quot;,&quot;childrenIds&quot;:null,&quot;groupParentId&quot;:null,&quot;groupChildrenIds&quot;:null,&quot;shapeType&quot;:&quot;mxgraph.floorplan.office_chair&quot;,&quot;origin&quot;:null,&quot;fromLibraryId&quot;:null,&quot;vertex&quot;:true,&quot;maskedCell&quot;:false,&quot;textCell&quot;:false,&quot;imageShape&quot;:false,&quot;webComponentType&quot;:null},&quot;animationInfo&quot;:null},{&quot;cell&quot;:{&quot;id&quot;:&quot;IKJQZZmq2oIj-uxnA4Oj-75&quot;,&quot;parentId&quot;:&quot;1&quot;,&quot;childrenIds&quot;:null,&quot;groupParentId&quot;:null,&quot;groupChildrenIds&quot;:null,&quot;shapeType&quot;:&quot;mxgraph.floorplan.office_chair&quot;,&quot;origin&quot;:null,&quot;fromLibraryId&quot;:null,&quot;vertex&quot;:true,&quot;maskedCell&quot;:false,&quot;textCell&quot;:false,&quot;imageShape&quot;:false,&quot;webComponentType&quot;:null},&quot;animationInfo&quot;:null},{&quot;cell&quot;:{&quot;id&quot;:&quot;IKJQZZmq2oIj-uxnA4Oj-76&quot;,&quot;parentId&quot;:&quot;1&quot;,&quot;childrenIds&quot;:null,&quot;groupParentId&quot;:null,&quot;groupChildrenIds&quot;:null,&quot;shapeType&quot;:&quot;mxgraph.floorplan.office_chair&quot;,&quot;origin&quot;:null,&quot;fromLibraryId&quot;:null,&quot;vertex&quot;:true,&quot;maskedCell&quot;:false,&quot;textCell&quot;:false,&quot;imageShape&quot;:false,&quot;webComponentType&quot;:null},&quot;animationInfo&quot;:null},{&quot;cell&quot;:{&quot;id&quot;:&quot;IKJQZZmq2oIj-uxnA4Oj-77&quot;,&quot;parentId&quot;:&quot;1&quot;,&quot;childrenIds&quot;:null,&quot;groupParentId&quot;:null,&quot;groupChildrenIds&quot;:null,&quot;shapeType&quot;:&quot;mxgraph.floorplan.office_chair&quot;,&quot;origin&quot;:null,&quot;fromLibraryId&quot;:null,&quot;vertex&quot;:true,&quot;maskedCell&quot;:false,&quot;textCell&quot;:false,&quot;imageShape&quot;:false,&quot;webComponentType&quot;:null},&quot;animationInfo&quot;:null},{&quot;cell&quot;:{&quot;id&quot;:&quot;IKJQZZmq2oIj-uxnA4Oj-78&quot;,&quot;parentId&quot;:&quot;1&quot;,&quot;childrenIds&quot;:null,&quot;groupParentId&quot;:null,&quot;groupChildrenIds&quot;:null,&quot;shapeType&quot;:&quot;mxgraph.floorplan.office_chair&quot;,&quot;origin&quot;:null,&quot;fromLibraryId&quot;:null,&quot;vertex&quot;:true,&quot;maskedCell&quot;:false,&quot;textCell&quot;:false,&quot;imageShape&quot;:false,&quot;webComponentType&quot;:null},&quot;animationInfo&quot;:null},{&quot;cell&quot;:{&quot;id&quot;:&quot;IKJQZZmq2oIj-uxnA4Oj-79&quot;,&quot;parentId&quot;:&quot;1&quot;,&quot;childrenIds&quot;:null,&quot;groupParentId&quot;:null,&quot;groupChildrenIds&quot;:null,&quot;shapeType&quot;:&quot;mxgraph.floorplan.office_chair&quot;,&quot;origin&quot;:null,&quot;fromLibraryId&quot;:null,&quot;vertex&quot;:true,&quot;maskedCell&quot;:false,&quot;textCell&quot;:false,&quot;imageShape&quot;:false,&quot;webComponentType&quot;:null},&quot;animationInfo&quot;:null},{&quot;cell&quot;:{&quot;id&quot;:&quot;IKJQZZmq2oIj-uxnA4Oj-80&quot;,&quot;parentId&quot;:&quot;1&quot;,&quot;childrenIds&quot;:null,&quot;groupParentId&quot;:null,&quot;groupChildrenIds&quot;:null,&quot;shapeType&quot;:&quot;mxgraph.floorplan.office_chair&quot;,&quot;origin&quot;:null,&quot;fromLibraryId&quot;:null,&quot;vertex&quot;:true,&quot;maskedCell&quot;:false,&quot;textCell&quot;:false,&quot;imageShape&quot;:false,&quot;webComponentType&quot;:null},&quot;animationInfo&quot;:null},{&quot;cell&quot;:{&quot;id&quot;:&quot;IKJQZZmq2oIj-uxnA4Oj-81&quot;,&quot;parentId&quot;:&quot;1&quot;,&quot;childrenIds&quot;:null,&quot;groupParentId&quot;:null,&quot;groupChildrenIds&quot;:null,&quot;shapeType&quot;:&quot;mxgraph.floorplan.office_chair&quot;,&quot;origin&quot;:null,&quot;fromLibraryId&quot;:null,&quot;vertex&quot;:true,&quot;maskedCell&quot;:false,&quot;textCell&quot;:false,&quot;imageShape&quot;:false,&quot;webComponentType&quot;:null},&quot;animationInfo&quot;:null},{&quot;cell&quot;:{&quot;id&quot;:&quot;IKJQZZmq2oIj-uxnA4Oj-82&quot;,&quot;parentId&quot;:&quot;1&quot;,&quot;childrenIds&quot;:null,&quot;groupParentId&quot;:null,&quot;groupChildrenIds&quot;:null,&quot;shapeType&quot;:&quot;mxgraph.floorplan.office_chair&quot;,&quot;origin&quot;:null,&quot;fromLibraryId&quot;:null,&quot;vertex&quot;:true,&quot;maskedCell&quot;:false,&quot;textCell&quot;:false,&quot;imageShape&quot;:false,&quot;webComponentType&quot;:null},&quot;animationInfo&quot;:null},{&quot;cell&quot;:{&quot;id&quot;:&quot;IKJQZZmq2oIj-uxnA4Oj-83&quot;,&quot;parentId&quot;:&quot;1&quot;,&quot;childrenIds&quot;:null,&quot;groupParentId&quot;:null,&quot;groupChildrenIds&quot;:null,&quot;shapeType&quot;:&quot;mxgraph.floorplan.office_chair&quot;,&quot;origin&quot;:null,&quot;fromLibraryId&quot;:null,&quot;vertex&quot;:true,&quot;maskedCell&quot;:false,&quot;textCell&quot;:false,&quot;imageShape&quot;:false,&quot;webComponentType&quot;:null},&quot;animationInfo&quot;:null},{&quot;cell&quot;:{&quot;id&quot;:&quot;IKJQZZmq2oIj-uxnA4Oj-84&quot;,&quot;parentId&quot;:&quot;1&quot;,&quot;childrenIds&quot;:null,&quot;groupParentId&quot;:null,&quot;groupChildrenIds&quot;:null,&quot;shapeType&quot;:&quot;MetaDiagramShape&quot;,&quot;origin&quot;:null,&quot;fromLibraryId&quot;:null,&quot;vertex&quot;:true,&quot;maskedCell&quot;:false,&quot;textCell&quot;:false,&quot;imageShape&quot;:false,&quot;webComponentType&quot;:null},&quot;animationInfo&quot;:null}],&quot;pageMeta&quot;:{&quot;audios&quot;:[],&quot;videos&quot;:[],&quot;characters&quot;:[],&quot;video_duration&quot;:1,&quot;page_width&quot;:1400,&quot;page_height&quot;:850,&quot;page_hash&quot;:&quot;b855e77e-143b-427a-97c3-fbcc9623a7b0&quot;}}" style="background-color: rgb(255, 255, 255);"><defs><style type="text/css">ul { margin-top: 0px; margin-bottom: 10px; }&#xa;ol { margin-top: 0px; margin-bottom: 10px; }&#xa;.h1, .h2, .h3, .h4, .h5, .h6, h1, h2, h3, h4, h5, h6 { margin-bottom: .5rem; font-weight: 500; line-height: 1.2; }&#xa;h1, h2, h3, h4, h5, h6 { margin-top: 0; margin-bottom: .5rem; }&#xa;.h1, h1 { font-size: 2.5rem; }&#xa;h2 { font-size: 1.5em; font-weight: bold; }&#xa;h3 { font-size: 1.17em; font-weight: bold; }&#xa;.h4, h4 { font-size: 1.5rem; }&#xa;.h5, h5 { font-size: 1.25rem; }&#xa;.h6, h6 { font-size: 1rem; }&#xa;p { margin-top: 0; margin-bottom: 1rem; }&#xa;a { color: #007bff; }&#xa;</style><style type="text/css">@import url("https://fonts.googleapis.com/css2?family=Open+Sans:ital,wght@0,400;0,700;1,400;1,700&amp;display=swap");&#xa;@import url("https://fonts.googleapis.com/css2?family=Open+Sans:ital,wght@0,400;0,700;1,400;1,700&amp;display=swap");&#xa;</style></defs><g><g shape-node=""><path cell-id="IKJQZZmq2oIj-uxnA4Oj-73" d="M 0 250 L 0 0 L 520 0 L 520 250 Z M 10 10 L 10 240 L 510 240 L 510 10 Z" fill="#000000" stroke="#000000" stroke-miterlimit="10" pointer-events="all"/></g><g shape-node=""><path cell-id="IKJQZZmq2oIj-uxnA4Oj-74" d="M 171.45 59.93 L 175.44 88.83 C 176.2 93.07 174.11 97.33 170.12 99.66 C 156.45 101.6 142.53 101.6 128.85 99.66 C 124.86 97.33 122.77 93.07 123.53 88.83 L 127.52 59.93 C 128.29 56.74 132.1 54.28 136.84 53.91 L 162.13 53.91 C 166.88 54.28 170.68 56.74 171.45 59.93 Z" fill="#ccac93" stroke="#ab907b" stroke-miterlimit="10" pointer-events="all"/><path cell-id="IKJQZZmq2oIj-uxnA4Oj-74" d="M 170.41 53.32 C 171.52 53.69 172.12 54.9 171.75 56.01 C 171.38 57.12 170.19 57.73 169.08 57.36 C 155.93 54.44 142.3 54.44 129.15 57.36 C 128.32 57.14 127.66 56.52 127.39 55.7 C 127.12 54.89 127.28 53.99 127.82 53.32 C 141.82 50 156.4 50 170.41 53.32" fill="#ccac93" stroke="#ab907b" stroke-miterlimit="10" pointer-events="all"/></g><g shape-node=""><path cell-id="IKJQZZmq2oIj-uxnA4Oj-75" d="M 173.45 158.33 L 177.45 187.23 C 178.21 191.47 176.12 195.73 172.12 198.06 C 158.45 200 144.53 200 130.86 198.06 C 126.86 195.73 124.77 191.47 125.53 187.23 L 129.53 158.33 C 130.29 155.14 134.1 152.68 138.84 152.31 L 164.14 152.31 C 168.88 152.68 172.69 155.14 173.45 158.33 Z" fill="#ccac93" stroke="#ab907b" stroke-miterlimit="10" transform="rotate(180,151.49,174.2)" pointer-events="all"/><path cell-id="IKJQZZmq2oIj-uxnA4Oj-75" d="M 172.41 151.72 C 173.52 152.09 174.12 153.3 173.75 154.41 C 173.38 155.52 172.19 156.13 171.08 155.76 C 157.93 152.84 144.31 152.84 131.15 155.76 C 130.32 155.54 129.66 154.92 129.39 154.1 C 129.12 153.29 129.28 152.39 129.82 151.72 C 143.83 148.4 158.41 148.4 172.41 151.72" fill="#ccac93" stroke="#ab907b" stroke-miterlimit="10" transform="rotate(180,151.49,174.2)" pointer-events="all"/></g><g shape-node=""><path cell-id="IKJQZZmq2oIj-uxnA4Oj-76" d="M 239.57 158.33 L 243.56 187.23 C 244.33 191.47 242.24 195.73 238.24 198.06 C 224.57 200 210.65 200 196.98 198.06 C 192.98 195.73 190.89 191.47 191.65 187.23 L 195.65 158.33 C 196.41 155.14 200.22 152.68 204.96 152.31 L 230.25 152.31 C 235 152.68 238.81 155.14 239.57 158.33 Z" fill="#ccac93" stroke="#ab907b" stroke-miterlimit="10" transform="rotate(180,217.61,174.2)" pointer-events="all"/><path cell-id="IKJQZZmq2oIj-uxnA4Oj-76" d="M 238.53 151.72 C 239.64 152.09 240.24 153.3 239.87 154.41 C 239.5 155.52 238.31 156.13 237.2 155.76 C 224.05 152.84 210.42 152.84 197.27 155.76 C 196.44 155.54 195.78 154.92 195.51 154.1 C 195.24 153.29 195.4 152.39 195.94 151.72 C 209.95 148.4 224.53 148.4 238.53 151.72" fill="#ccac93" stroke="#ab907b" stroke-miterlimit="10" transform="rotate(180,217.61,174.2)" pointer-events="all"/></g><g shape-node=""><path cell-id="IKJQZZmq2oIj-uxnA4Oj-77" d="M 237.57 59.93 L 241.56 88.83 C 242.32 93.07 240.23 97.33 236.24 99.66 C 222.57 101.6 208.64 101.6 194.97 99.66 C 190.98 97.33 188.89 93.07 189.65 88.83 L 193.64 59.93 C 194.41 56.74 198.22 54.28 202.96 53.91 L 228.25 53.91 C 232.99 54.28 236.8 56.74 237.57 59.93 Z" fill="#ccac93" stroke="#ab907b" stroke-miterlimit="10" pointer-events="all"/><path cell-id="IKJQZZmq2oIj-uxnA4Oj-77" d="M 236.53 53.32 C 237.64 53.69 238.23 54.9 237.87 56.01 C 237.5 57.12 236.3 57.73 235.2 57.36 C 222.04 54.44 208.42 54.44 195.27 57.36 C 194.44 57.14 193.78 56.52 193.51 55.7 C 193.24 54.89 193.4 53.99 193.94 53.32 C 207.94 50 222.52 50 236.53 53.32" fill="#ccac93" stroke="#ab907b" stroke-miterlimit="10" pointer-events="all"/></g><g shape-node=""><path cell-id="IKJQZZmq2oIj-uxnA4Oj-78" d="M 311.03 158.33 L 315.03 187.23 C 315.79 191.47 313.7 195.73 309.7 198.06 C 296.03 200 282.11 200 268.44 198.06 C 264.44 195.73 262.35 191.47 263.11 187.23 L 267.11 158.33 C 267.87 155.14 271.68 152.68 276.42 152.31 L 301.72 152.31 C 306.46 152.68 310.27 155.14 311.03 158.33 Z" fill="#ccac93" stroke="#ab907b" stroke-miterlimit="10" transform="rotate(180,289.07,174.2)" pointer-events="all"/><path cell-id="IKJQZZmq2oIj-uxnA4Oj-78" d="M 309.99 151.72 C 311.1 152.09 311.7 153.3 311.33 154.41 C 310.96 155.52 309.77 156.13 308.66 155.76 C 295.51 152.84 281.89 152.84 268.73 155.76 C 267.9 155.54 267.24 154.92 266.97 154.1 C 266.7 153.29 266.86 152.39 267.4 151.72 C 281.41 148.4 295.99 148.4 309.99 151.72" fill="#ccac93" stroke="#ab907b" stroke-miterlimit="10" transform="rotate(180,289.07,174.2)" pointer-events="all"/></g><g shape-node=""><path cell-id="IKJQZZmq2oIj-uxnA4Oj-79" d="M 309.03 59.93 L 313.02 88.83 C 313.78 93.07 311.69 97.33 307.7 99.66 C 294.03 101.6 280.11 101.6 266.43 99.66 C 262.44 97.33 260.35 93.07 261.11 88.83 L 265.1 59.93 C 265.87 56.74 269.68 54.28 274.42 53.91 L 299.71 53.91 C 304.46 54.28 308.26 56.74 309.03 59.93 Z" fill="#ccac93" stroke="#ab907b" stroke-miterlimit="10" pointer-events="all"/><path cell-id="IKJQZZmq2oIj-uxnA4Oj-79" d="M 307.99 53.32 C 309.1 53.69 309.7 54.9 309.33 56.01 C 308.96 57.12 307.77 57.73 306.66 57.36 C 293.51 54.44 279.88 54.44 266.73 57.36 C 265.9 57.14 265.24 56.52 264.97 55.7 C 264.7 54.89 264.86 53.99 265.4 53.32 C 279.4 50 293.98 50 307.99 53.32" fill="#ccac93" stroke="#ab907b" stroke-miterlimit="10" pointer-events="all"/></g><g shape-node=""><path cell-id="IKJQZZmq2oIj-uxnA4Oj-80" d="M 377.82 158.33 L 381.81 187.23 C 382.57 191.47 380.48 195.73 376.49 198.06 C 362.82 200 348.9 200 335.22 198.06 C 331.23 195.73 329.14 191.47 329.9 187.23 L 333.89 158.33 C 334.66 155.14 338.47 152.68 343.21 152.31 L 368.5 152.31 C 373.25 152.68 377.05 155.14 377.82 158.33 Z" fill="#ccac93" stroke="#ab907b" stroke-miterlimit="10" transform="rotate(180,355.86,174.2)" pointer-events="all"/><path cell-id="IKJQZZmq2oIj-uxnA4Oj-80" d="M 376.78 151.72 C 377.89 152.09 378.49 153.3 378.12 154.41 C 377.75 155.52 376.56 156.13 375.45 155.76 C 362.3 152.84 348.67 152.84 335.52 155.76 C 334.69 155.54 334.03 154.92 333.76 154.1 C 333.49 153.29 333.65 152.39 334.19 151.72 C 348.19 148.4 362.77 148.4 376.78 151.72" fill="#ccac93" stroke="#ab907b" stroke-miterlimit="10" transform="rotate(180,355.86,174.2)" pointer-events="all"/></g><g shape-node=""><path cell-id="IKJQZZmq2oIj-uxnA4Oj-81" d="M 375.82 59.93 L 379.81 88.83 C 380.57 93.07 378.48 97.33 374.48 99.66 C 360.81 101.6 346.89 101.6 333.22 99.66 C 329.23 97.33 327.14 93.07 327.9 88.83 L 331.89 59.93 C 332.66 56.74 336.46 54.28 341.21 53.91 L 366.5 53.91 C 371.24 54.28 375.05 56.74 375.82 59.93 Z" fill="#ccac93" stroke="#ab907b" stroke-miterlimit="10" pointer-events="all"/><path cell-id="IKJQZZmq2oIj-uxnA4Oj-81" d="M 374.78 53.32 C 375.88 53.69 376.48 54.9 376.11 56.01 C 375.75 57.12 374.55 57.73 373.45 57.36 C 360.29 54.44 346.67 54.44 333.51 57.36 C 332.69 57.14 332.02 56.52 331.76 55.7 C 331.49 54.89 331.65 53.99 332.18 53.32 C 346.19 50 360.77 50 374.78 53.32" fill="#ccac93" stroke="#ab907b" stroke-miterlimit="10" pointer-events="all"/></g><g shape-node=""><path cell-id="IKJQZZmq2oIj-uxnA4Oj-82" d="M 431.25 106.73 L 435.24 135.63 C 436 139.87 433.91 144.13 429.92 146.46 C 416.25 148.4 402.32 148.4 388.65 146.46 C 384.66 144.13 382.57 139.87 383.33 135.63 L 387.32 106.73 C 388.09 103.54 391.9 101.08 396.64 100.71 L 421.93 100.71 C 426.67 101.08 430.48 103.54 431.25 106.73 Z" fill="#ccac93" stroke="#ab907b" stroke-miterlimit="10" transform="rotate(90,409.29,122.6)" pointer-events="all"/><path cell-id="IKJQZZmq2oIj-uxnA4Oj-82" d="M 430.21 100.12 C 431.32 100.49 431.91 101.7 431.55 102.81 C 431.18 103.92 429.98 104.53 428.88 104.16 C 415.72 101.24 402.1 101.24 388.95 104.16 C 388.12 103.94 387.46 103.32 387.19 102.5 C 386.92 101.69 387.08 100.79 387.62 100.12 C 401.62 96.8 416.2 96.8 430.21 100.12" fill="#ccac93" stroke="#ab907b" stroke-miterlimit="10" transform="rotate(90,409.29,122.6)" pointer-events="all"/></g><g shape-node=""><path cell-id="IKJQZZmq2oIj-uxnA4Oj-83" d="M 112.68 111.53 L 116.67 140.43 C 117.43 144.67 115.34 148.93 111.35 151.26 C 97.68 153.2 83.75 153.2 70.08 151.26 C 66.09 148.93 64 144.67 64.76 140.43 L 68.75 111.53 C 69.52 108.34 73.33 105.88 78.07 105.51 L 103.36 105.51 C 108.1 105.88 111.91 108.34 112.68 111.53 Z" fill="#ccac93" stroke="#ab907b" stroke-miterlimit="10" transform="rotate(-90,90.71,127.4)" pointer-events="all"/><path cell-id="IKJQZZmq2oIj-uxnA4Oj-83" d="M 111.64 104.92 C 112.74 105.29 113.34 106.5 112.98 107.61 C 112.61 108.72 111.41 109.33 110.31 108.96 C 97.15 106.04 83.53 106.04 70.38 108.96 C 69.55 108.74 68.89 108.12 68.62 107.3 C 68.35 106.49 68.51 105.59 69.04 104.92 C 83.05 101.6 97.63 101.6 111.64 104.92" fill="#ccac93" stroke="#ab907b" stroke-miterlimit="10" transform="rotate(-90,90.71,127.4)" pointer-events="all"/></g><g shape-node=""><path cell-id="IKJQZZmq2oIj-uxnA4Oj-84" d="M 251.67 71 C 194.26 71 143.03 78.67 109.05 90.6 L 109.05 159.4 C 143.03 171.33 194.26 179 251.67 179 C 309.08 179 360.31 171.44 394.29 159.4 L 394.29 90.6 C 360.31 78.67 309.08 71 251.67 71 Z" fill="#ccac93" stroke="#ab907b" stroke-miterlimit="10" pointer-events="all"/></g></g>
</svg>