<?xml version="1.0" encoding="iso-8859-1"?>
<!-- Uploaded to: SVG Repo, www.svgrepo.com, Generator: SVG Repo Mixer Tools -->
<svg version="1.1" id="Layer_1" xmlns="http://www.w3.org/2000/svg" xmlns:xlink="http://www.w3.org/1999/xlink" 
	 viewBox="0 0 508 508" xml:space="preserve">
<polygon style="fill:#D6B34C;" points="502,198 502,174 6,174 6,402 26,402 26,198 "/>
<g>
	<rect x="310" y="334" style="fill:#E8BB85;" width="192" height="68"/>
	<rect x="310" y="266" style="fill:#E8BB85;" width="192" height="68"/>
	<rect x="310" y="198" style="fill:#E8BB85;" width="192" height="68"/>
</g>
<path style="fill:#61C2AB;" d="M142,278h-30.8c-8.8,0-17.2-11.2-17.2-20V122c0-8.8,8.4-12,17.2-12h96c8.8,0,14.8,3.2,14.8,12v136
	c0,8.8-6,20-14.8,20H174"/>
<path style="fill:#4BB19B;" d="M170,298h37.2c8.8,0,16,7.2,16,16l0,0c0,8.8-7.2,16-16,16h-96c-8.8,0-16-7.2-16-16l0,0
	c0-8.8,7.2-16,16-16H146"/>
<path style="fill:#7D8B95;" d="M158,206c-6.8,0-12,5.2-12,12v96h24v-96C170,211.2,164.8,206,158,206z"/>
<rect x="150" y="330" style="fill:#676767;" width="16" height="56"/>
<g>
	<circle style="fill:#10927A;" cx="107.2" cy="390" r="8"/>
	<circle style="fill:#10927A;" cx="215.2" cy="390" r="8"/>
</g>
<path d="M504,200H222c-2.4,0-4-1.6-4-4s1.6-4,4-4h278v-16H222c-2.4,0-4-1.6-4-4s1.6-4,4-4h282c2.4,0,4,1.6,4,4v24
	C508,198.4,506.4,200,504,200z"/>
<path d="M28,404H4c-2.4,0-4-1.6-4-4V172c0-2.4,1.6-4,4-4h86c2.4,0,4,1.6,4,4s-1.6,4-4,4H8v220h16V196c0-2.4,1.6-4,4-4h62
	c2.4,0,4,1.6,4,4s-1.6,4-4,4H32v200C32,402.4,30.4,404,28,404z"/>
<path d="M207.2,280H170c-2.4,0-4-1.6-4-4s1.6-4,4-4h37.2c6,0,8.8-9.6,8.8-16V120c0-6.4-2-8-8.8-8h-99.6c-6.8,0-11.2,4-11.2,10.4V256
	c0,7.2,4.8,16,10.8,16h35.2c2.4,0,4,1.6,4,4s-1.6,4-4,4h-35.2c-11.2,0-18.8-12.8-18.8-24V122.4c0-10.8,8-18.4,19.2-18.4h99.6
	c11.2,0,16.8,5.2,16.8,16v136C224,267.6,218,280,207.2,280z"/>
<path d="M207.2,332h-96c-11.2,0-20-8.8-20-20s8.8-20,20-20H142c2.4,0,4,1.6,4,4s-1.6,4-4,4h-30.8c-6.8,0-12,5.2-12,12s5.2,12,12,12
	h96c6.8,0,12-5.2,12-12s-5.2-12-12-12H170c-2.4,0-4-1.6-4-4s1.6-4,4-4h37.2c11.2,0,20,8.8,20,20S218,332,207.2,332z"/>
<path d="M168,316h-24c-2.4,0-4-1.6-4-4v-96c0-8.8,7.2-16,16-16s16,7.2,16,16v96C172,314.4,170.4,316,168,316z M148,308h16v-92
	c0-4.4-3.6-8-8-8s-8,3.6-8,8V308z"/>
<path d="M164,388h-16c-2.4,0-4-1.6-4-4v-54c0-2.4,1.6-4,4-4s4,1.6,4,4v50h8v-50c0-2.4,1.6-4,4-4s4,1.6,4,4v54
	C168,386.4,166.4,388,164,388z"/>
<path d="M206,388h-92c-2.4,0-4-1.6-4-4s1.6-4,4-4h92c2.4,0,4,1.6,4,4S208.4,388,206,388z"/>
<path d="M107.2,400c-6.8,0-12-5.2-12-12s5.2-12,12-12s12,5.2,12,12S113.6,400,107.2,400z M107.2,384c-2.4,0-4,1.6-4,4s1.6,4,4,4
	s4-1.6,4-4S109.2,384,107.2,384z"/>
<path d="M215.2,400c-6.8,0-12-5.2-12-12s5.2-12,12-12s12,5.2,12,12S221.6,400,215.2,400z M215.2,384c-2.4,0-4,1.6-4,4s1.6,4,4,4
	s4-1.6,4-4S217.2,384,215.2,384z"/>
<path d="M486,264H314c-2.4,0-4-1.6-4-4s1.6-4,4-4h172c2.4,0,4,1.6,4,4S488.4,264,486,264z"/>
<path d="M434,300h-48c-2.4,0-4-1.6-4-4s1.6-4,4-4h48c2.4,0,4,1.6,4,4S436.4,300,434,300z"/>
<path d="M434,232h-48c-2.4,0-4-1.6-4-4s1.6-4,4-4h48c2.4,0,4,1.6,4,4S436.4,232,434,232z"/>
<path d="M434,372h-48c-2.4,0-4-1.6-4-4s1.6-4,4-4h48c2.4,0,4,1.6,4,4S436.4,372,434,372z"/>
<path d="M486,336H314c-2.4,0-4-1.6-4-4s1.6-4,4-4h172c2.4,0,4,1.6,4,4S488.4,336,486,336z"/>
<path d="M504,404H312c-2.4,0-4-1.6-4-4V196c0-2.4,1.6-4,4-4h192c2.4,0,4,1.6,4,4v204C508,402.4,506.4,404,504,404z M316,396h184V200
	H316V396z"/>
</svg>